<mxfile host="drawio-plugin" modified="2021-06-16T10:50:58.996Z" agent="5.0 (Windows NT 6.2; Win64; x64) AppleWebKit/537.36 (KHTML, like Gecko) Chrome/84.0.4147.105 Safari/537.36" etag="4VcAiSuw5KZAMTJ9gL1i" version="14.6.6" type="embed"><diagram id="4JwfXuO2akZaQnoixitr" name="Page-1"><mxGraphModel dx="841" dy="451" grid="1" gridSize="10" guides="1" tooltips="1" connect="1" arrows="1" fold="1" page="1" pageScale="1" pageWidth="850" pageHeight="1100" math="0" shadow="0"><root><mxCell id="0"/><mxCell id="1" parent="0"/><mxCell id="ChB3Q6yHFGJVvT3oNSeM-2" value="" style="endArrow=none;dashed=1;html=1;" parent="1" edge="1"><mxGeometry width="50" height="50" relative="1" as="geometry"><mxPoint x="160" y="680" as="sourcePoint"/><mxPoint x="160" y="240" as="targetPoint"/></mxGeometry></mxCell><mxCell id="ChB3Q6yHFGJVvT3oNSeM-3" value="" style="rounded=1;whiteSpace=wrap;html=1;" parent="1" vertex="1"><mxGeometry x="470" y="170" width="100" height="50" as="geometry"/></mxCell><mxCell id="ChB3Q6yHFGJVvT3oNSeM-4" value="System" style="text;html=1;strokeColor=none;fillColor=none;align=center;verticalAlign=middle;whiteSpace=wrap;rounded=0;" parent="1" vertex="1"><mxGeometry x="500" y="185" width="40" height="20" as="geometry"/></mxCell><mxCell id="ChB3Q6yHFGJVvT3oNSeM-5" value="" style="endArrow=none;dashed=1;html=1;" parent="1" edge="1"><mxGeometry width="50" height="50" relative="1" as="geometry"><mxPoint x="519.5" y="680" as="sourcePoint"/><mxPoint x="519.5" y="240" as="targetPoint"/></mxGeometry></mxCell><mxCell id="ChB3Q6yHFGJVvT3oNSeM-14" value="Actor" style="shape=umlActor;verticalLabelPosition=bottom;verticalAlign=top;html=1;" parent="1" vertex="1"><mxGeometry x="140" y="150" width="30" height="60" as="geometry"/></mxCell><mxCell id="ChB3Q6yHFGJVvT3oNSeM-16" value="" style="endArrow=classic;html=1;" parent="1" edge="1"><mxGeometry width="50" height="50" relative="1" as="geometry"><mxPoint x="160" y="280" as="sourcePoint"/><mxPoint x="480" y="280" as="targetPoint"/></mxGeometry></mxCell><mxCell id="ChB3Q6yHFGJVvT3oNSeM-21" value="" style="endArrow=block;dashed=1;endFill=0;endSize=12;html=1;" parent="1" edge="1"><mxGeometry width="160" relative="1" as="geometry"><mxPoint x="520" y="320" as="sourcePoint"/><mxPoint x="210" y="320" as="targetPoint"/></mxGeometry></mxCell><mxCell id="ChB3Q6yHFGJVvT3oNSeM-23" value="" style="endArrow=block;dashed=1;endFill=0;endSize=12;html=1;" parent="1" edge="1"><mxGeometry width="160" relative="1" as="geometry"><mxPoint x="520" y="600" as="sourcePoint"/><mxPoint x="210" y="600" as="targetPoint"/></mxGeometry></mxCell><mxCell id="ChB3Q6yHFGJVvT3oNSeM-24" value="" style="endArrow=classic;html=1;" parent="1" edge="1"><mxGeometry width="50" height="50" relative="1" as="geometry"><mxPoint x="160" y="360" as="sourcePoint"/><mxPoint x="480" y="360" as="targetPoint"/></mxGeometry></mxCell><mxCell id="ChB3Q6yHFGJVvT3oNSeM-25" value="" style="endArrow=classic;html=1;" parent="1" edge="1"><mxGeometry width="50" height="50" relative="1" as="geometry"><mxPoint x="160" y="560" as="sourcePoint"/><mxPoint x="480" y="560" as="targetPoint"/></mxGeometry></mxCell><mxCell id="6" value="Create Event Card" style="text;html=1;align=center;verticalAlign=middle;resizable=0;points=[];autosize=1;strokeColor=none;" vertex="1" parent="1"><mxGeometry x="265" y="260" width="110" height="20" as="geometry"/></mxCell><mxCell id="7" value="Event Card window" style="text;html=1;align=center;verticalAlign=middle;resizable=0;points=[];autosize=1;strokeColor=none;" vertex="1" parent="1"><mxGeometry x="265" y="300" width="120" height="20" as="geometry"/></mxCell><mxCell id="8" value="Write quick note" style="text;html=1;align=center;verticalAlign=middle;resizable=0;points=[];autosize=1;strokeColor=none;" vertex="1" parent="1"><mxGeometry x="245" y="460" width="100" height="20" as="geometry"/></mxCell><mxCell id="9" value="" style="endArrow=classic;html=1;" edge="1" parent="1"><mxGeometry width="50" height="50" relative="1" as="geometry"><mxPoint x="160" y="400" as="sourcePoint"/><mxPoint x="480" y="400" as="targetPoint"/></mxGeometry></mxCell><mxCell id="10" value="" style="endArrow=classic;html=1;" edge="1" parent="1"><mxGeometry width="50" height="50" relative="1" as="geometry"><mxPoint x="160" y="440" as="sourcePoint"/><mxPoint x="480" y="440" as="targetPoint"/></mxGeometry></mxCell><mxCell id="11" value="Write note" style="text;html=1;align=center;verticalAlign=middle;resizable=0;points=[];autosize=1;strokeColor=none;" vertex="1" parent="1"><mxGeometry x="265" y="500" width="70" height="20" as="geometry"/></mxCell><mxCell id="12" value="Write Comment" style="text;html=1;align=center;verticalAlign=middle;resizable=0;points=[];autosize=1;strokeColor=none;" vertex="1" parent="1"><mxGeometry x="255" y="540" width="100" height="20" as="geometry"/></mxCell><mxCell id="13" value="" style="endArrow=classic;html=1;" edge="1" parent="1"><mxGeometry width="50" height="50" relative="1" as="geometry"><mxPoint x="160" y="520" as="sourcePoint"/><mxPoint x="480" y="520" as="targetPoint"/></mxGeometry></mxCell><mxCell id="14" value="Write Event Name" style="text;html=1;align=center;verticalAlign=middle;resizable=0;points=[];autosize=1;strokeColor=none;" vertex="1" parent="1"><mxGeometry x="245" y="340" width="110" height="20" as="geometry"/></mxCell><mxCell id="15" value="Write Chapter" style="text;html=1;align=center;verticalAlign=middle;resizable=0;points=[];autosize=1;strokeColor=none;" vertex="1" parent="1"><mxGeometry x="255" y="380" width="90" height="20" as="geometry"/></mxCell><mxCell id="16" value="Write Role" style="text;html=1;align=center;verticalAlign=middle;resizable=0;points=[];autosize=1;strokeColor=none;" vertex="1" parent="1"><mxGeometry x="265" y="420" width="70" height="20" as="geometry"/></mxCell><mxCell id="17" value="" style="endArrow=classic;html=1;" edge="1" parent="1"><mxGeometry width="50" height="50" relative="1" as="geometry"><mxPoint x="160" y="479.5" as="sourcePoint"/><mxPoint x="480" y="479.5" as="targetPoint"/></mxGeometry></mxCell><mxCell id="18" value="Show updated event card" style="text;html=1;align=center;verticalAlign=middle;resizable=0;points=[];autosize=1;strokeColor=none;" vertex="1" parent="1"><mxGeometry x="255" y="580" width="150" height="20" as="geometry"/></mxCell></root></mxGraphModel></diagram></mxfile>